# xmcd CD database file
# Copyright (C) 1993-1998 Ti Kan
# 
# Track frame offsets:
#     150
#     13930
#     23887
#     37390
#     50882
#     63650
#     79767
#     91737
#     107472
#     122567
#     133865
#     146490
#     169522
#     186634
#     195300
# 
# Disc length: 2845 seconds
# 
# Revision: 1
# Processed by: cddbd v1.4b41PL1 Copyright (c) Steve Scherf et al.
# Submitted via: DiscPlay 4.0.4
# 
DISCID=d60b1b0f
DTITLE=Guilherme Kerr Neto - O Melhor de Guilherme Kerr Neto
DYEAR=1900
DGENRE=
TTITLE0=UNIDADE E DIVERSIDADE
TTITLE1=CONTAR OS DIAS
TTITLE2=AME AO SENHOR
TTITLE3=FILIPE, O PRATICO
TTITLE4=EM TROCA
TTITLE5=MUITOS VIRAO TE LOUVAR
TTITLE6=LADO A LADO
TTITLE7=BARNABE
TTITLE8=VIMOS ADORAR
TTITLE9=MENTE E CORACAO
TTITLE10=COISA SERIA
TTITLE11=AO AMADO
TTITLE12=JUSTICA E SALVACAO
TTITLE13=A CANDEIA
TTITLE14=A GRANDE FESTA
EXTD=
EXTT0=
EXTT1=
EXTT2=
EXTT3=
EXTT4=
EXTT5=
EXTT6=
EXTT7=
EXTT8=
EXTT9=
EXTT10=
EXTT11=
EXTT12=
EXTT13=
EXTT14=
PLAYORDER=
